<?xml version="1.0" encoding="utf-8"?>
<!-- Generator: Adobe Illustrator 27.5.0, SVG Export Plug-In . SVG Version: 6.00 Build 0)  -->
<svg version="1.1" xmlns="http://www.w3.org/2000/svg" xmlns:xlink="http://www.w3.org/1999/xlink" x="0px" y="0px"
	 viewBox="0 0 500 500" style="enable-background:new 0 0 500 500;" xml:space="preserve">
<g id="BACKGROUND">
	<rect style="fill:#FFFFFF;" width="500" height="500"/>
</g>
<g id="OBJECTS">
	<ellipse style="fill:#EEF6FF;" cx="248.591" cy="445.074" rx="205.179" ry="19.124"/>
	<g>
		<g>
			<g>
				<path style="opacity:0.4;fill:none;stroke:#C4EDDE;stroke-width:2;stroke-miterlimit:10;" d="M68.639,350.089
					c-4.713,0-8.729-3.369-9.547-8.01l-10.911-61.77c-0.5-2.83,0.273-5.715,2.12-7.918c1.847-2.201,4.554-3.465,7.428-3.465h121.865
					c4.712,0,8.728,3.368,9.548,8.009l10.91,61.771c0.5,2.831-0.273,5.716-2.12,7.918c-1.847,2.201-4.554,3.465-7.428,3.465H68.639z
					"/>
				<path style="opacity:0.4;fill:#C4EDDE;" d="M190.505,345.309H68.639c-2.385,0-4.426-1.712-4.84-4.06l-10.911-61.771
					c-0.532-3.01,1.784-5.77,4.84-5.77h121.866c2.385,0,4.426,1.712,4.84,4.06l10.911,61.771
					C195.877,342.549,193.562,345.309,190.505,345.309z"/>
			</g>
			<g>
				<polygon style="fill:#6CD8D0;" points="174.012,291.303 126.015,291.303 125.54,288.613 173.537,288.613 				"/>
				<polygon style="fill:#6CD8D0;" points="165.777,297.049 127.03,297.049 126.555,294.359 165.302,294.359 				"/>
				<g>
					<g>
						<path style="fill:#6CD8D0;" d="M117.504,320.04H73.809c-0.528,0-1.032-0.428-1.125-0.956l-5.227-29.594
							c-0.093-0.528,0.259-0.956,0.787-0.956h43.696c0.528,0,1.032,0.428,1.125,0.956l5.227,29.594
							C118.385,319.612,118.032,320.04,117.504,320.04z M74.427,318.128h41.784l-4.889-27.682H69.538L74.427,318.128z"/>
						<path style="fill:#6CD8D0;" d="M93.043,305.243c-0.187,0-0.384-0.055-0.565-0.164l-24.461-14.797
							c-0.49-0.296-0.709-0.891-0.49-1.328c0.219-0.438,0.794-0.551,1.282-0.256l23.861,14.434l18.762-14.434
							c0.383-0.295,0.999-0.182,1.373,0.256c0.373,0.437,0.364,1.032-0.021,1.328L93.55,305.079
							C93.408,305.188,93.23,305.243,93.043,305.243z"/>
					</g>
					<g>
						<polygon style="fill:#F73859;" points="181.631,333.539 75.092,333.539 74.414,329.7 180.953,329.7 						"/>
					</g>
				</g>
				<polygon style="fill:#6CD8D0;" points="170.811,302.795 128.045,302.795 127.57,300.105 170.336,300.105 				"/>
				<polygon style="fill:#6CD8D0;" points="161.894,308.541 129.06,308.541 128.585,305.851 161.418,305.851 				"/>
				<polygon style="fill:#6CD8D0;" points="174.129,314.287 130.075,314.287 129.6,311.598 173.654,311.598 				"/>
				<polygon style="fill:#6CD8D0;" points="167.866,320.033 131.09,320.033 130.615,317.344 167.391,317.344 				"/>
			</g>
		</g>
		<g>
			<g>
				<path style="opacity:0.4;fill:none;stroke:#C4EDDE;stroke-width:2;stroke-miterlimit:10;" d="M56.382,257.278
					c-5.808,0-10.75-4.153-11.751-9.874L25.889,140.266c-0.608-3.48,0.346-7.026,2.618-9.73c2.272-2.704,5.601-4.255,9.133-4.255
					h157.499c5.808,0,10.75,4.153,11.751,9.874l18.743,107.138c0.609,3.479-0.345,7.024-2.617,9.729
					c-2.272,2.705-5.601,4.255-9.133,4.255H56.382z"/>
				<path style="opacity:0.4;fill:#C4EDDE;" d="M213.882,252.497h-157.5c-3.473,0-6.443-2.496-7.042-5.917L30.597,139.443
					c-0.765-4.374,2.601-8.381,7.042-8.381h157.5c3.473,0,6.444,2.496,7.042,5.917l18.743,107.138
					C221.689,248.491,218.322,252.497,213.882,252.497z"/>
			</g>
			<g>
				<g>
					<path style="fill:#F73859;" d="M103.968,217.917c-15.132,0-29.596-12.311-32.243-27.443
						c-2.647-15.132,7.51-27.442,22.642-27.442c15.132,0,29.596,12.31,32.243,27.442C129.256,205.607,119.1,217.917,103.968,217.917
						z M94.868,165.901c-13.551,0-22.646,11.024-20.275,24.574c2.37,13.551,15.323,24.575,28.873,24.575
						c13.55,0,22.646-11.024,20.275-24.575C121.371,176.925,108.418,165.901,94.868,165.901z"/>
					<path style="fill:#F73859;" d="M107.108,235.869c-25.03,0-48.957-20.364-53.336-45.395
						c-4.379-25.03,12.423-45.394,37.453-45.394c25.031,0,48.956,20.364,53.335,45.394
						C148.94,215.505,132.139,235.869,107.108,235.869z M91.728,147.949c-23.449,0-39.189,19.077-35.087,42.526
						s26.517,42.527,49.966,42.527c23.449,0,39.188-19.077,35.086-42.527C137.591,167.026,115.177,147.949,91.728,147.949z"/>
					<path style="fill:#6CD8D0;" d="M107.61,238.737c-26.612,0-52.05-21.65-56.706-48.263
						c-4.655-26.611,13.208-48.262,39.819-48.262c26.612,0,52.05,21.65,56.705,48.262c0.935,5.344,0.985,10.595,0.15,15.607
						l-8.628-2.781c0.686-4.115,0.644-8.43-0.125-12.826c-3.826-21.867-24.728-39.658-46.596-39.658
						c-21.868,0-36.546,17.79-32.721,39.658c3.826,21.868,24.728,39.659,46.596,39.659L107.61,238.737z"/>
					<path style="fill:#6CD8D0;" d="M104.47,220.785c-16.713,0-32.689-13.597-35.613-30.311c-1.898-10.85,2.194-20.939,10.68-26.329
						l5.577,7.47c-6.08,3.862-9.013,11.088-7.653,18.859c2.094,11.969,13.535,21.707,25.504,21.707
						c11.969,0,20.003-9.737,17.909-21.707c-0.911-5.209-3.665-10.245-7.753-14.181l5.527-5.624
						c5.712,5.498,9.557,12.532,10.83,19.805C132.401,207.188,121.183,220.785,104.47,220.785z"/>
					<path style="fill:#6CD8D0;" d="M91.661,199.659c-2.895-2.447-4.824-5.709-5.432-9.184c-1.248-7.134,3.54-12.937,10.675-12.937
						c7.133,0,13.952,5.804,15.2,12.937c0.388,2.221,0.199,4.413-0.548,6.34l-8.237-4.22c0.252-0.65,0.313-1.363,0.181-2.12
						c-0.418-2.389-2.702-4.333-5.091-4.333c-2.39,0-3.994,1.944-3.576,4.333c0.204,1.164,0.85,2.257,1.819,3.076L91.661,199.659z"
						/>
				</g>
				<g>
					<g>
						<g>
							<polygon style="fill:#6CD8D0;" points="188.809,144.265 148.644,144.265 148.199,141.723 188.364,141.723 							"/>
						</g>
						<g>
							<polygon style="fill:#6CD8D0;" points="196.827,150.694 149.769,150.694 149.324,148.152 196.382,148.152 							"/>
						</g>
						<g>
							<polygon style="fill:#6CD8D0;" points="194.291,157.124 150.893,157.124 150.449,154.581 193.846,154.581 							"/>
						</g>
						<g>
							<polygon style="fill:#6CD8D0;" points="183.246,163.553 152.018,163.553 151.573,161.011 182.802,161.011 							"/>
						</g>
						<g>
							<polygon style="fill:#6CD8D0;" points="192.943,169.982 153.143,169.982 152.698,167.44 192.499,167.44 							"/>
						</g>
					</g>
					<g>
						<g>
							<polygon style="fill:#6CD8D0;" points="196.425,187.799 156.26,187.799 155.815,185.257 195.98,185.257 							"/>
						</g>
						<g>
							<polygon style="fill:#6CD8D0;" points="204.442,194.228 157.384,194.228 156.94,191.686 203.998,191.686 							"/>
						</g>
						<g>
							<polygon style="fill:#6CD8D0;" points="201.907,200.657 158.509,200.657 158.064,198.115 201.462,198.115 							"/>
						</g>
						<g>
							<polygon style="fill:#6CD8D0;" points="190.862,207.086 159.634,207.086 159.189,204.544 190.417,204.544 							"/>
						</g>
						<g>
							<polygon style="fill:#6CD8D0;" points="200.559,213.515 160.758,213.515 160.314,210.973 200.114,210.973 							"/>
						</g>
					</g>
				</g>
			</g>
		</g>
		<g>
			<g>
				<path style="opacity:0.4;fill:none;stroke:#C4EDDE;stroke-width:2;stroke-miterlimit:10;" d="M97.447,114.633
					c-3.186,0-6.177-1.409-8.205-3.867c-2.028-2.457-2.845-5.661-2.24-8.79l11.123-57.554c0.965-4.994,5.358-8.619,10.445-8.619
					h125.538c3.186,0,6.177,1.41,8.205,3.867c2.028,2.458,2.844,5.661,2.239,8.79l-11.122,57.554
					c-0.965,4.995-5.358,8.619-10.445,8.619H97.447z"/>
				<path style="opacity:0.4;fill:#C4EDDE;" d="M222.985,109.853H97.447c-3.681,0-6.45-3.355-5.752-6.97l11.123-57.554
					c0.533-2.756,2.945-4.746,5.752-4.746h125.538c3.681,0,6.45,3.355,5.752,6.97l-11.123,57.554
					C228.204,107.862,225.792,109.853,222.985,109.853z"/>
			</g>
			<g>
				<g>
					<path style="fill:#6CD8D0;" d="M131.423,102.24c-14.819,0-24.546-12.056-21.682-26.876c2.864-14.819,17.25-26.876,32.07-26.876
						c14.82,0,24.546,12.056,21.682,26.876C160.63,90.184,146.243,102.24,131.423,102.24z M141.534,49.922
						c-14.029,0-27.647,11.413-30.359,25.442c-2.711,14.029,6.496,25.442,20.525,25.442c14.029,0,27.648-11.413,30.359-25.442
						C164.771,61.335,155.563,49.922,141.534,49.922z"/>
					<path style="fill:#6CD8D0;" d="M131.423,102.24c-9.503,0-14.904-12.056-12.04-26.876c2.864-14.819,12.925-26.876,22.428-26.876
						c9.503,0,14.904,12.056,12.04,26.876C150.987,90.184,140.926,102.24,131.423,102.24z M141.534,49.922
						c-8.712,0-18.006,11.413-20.717,25.442c-2.711,14.029,2.171,25.442,10.883,25.442c8.712,0,18.006-11.413,20.717-25.442
						C155.129,61.335,150.247,49.922,141.534,49.922z"/>
					<path style="fill:#6CD8D0;" d="M131.423,102.24c-4.661,0-4.5-13.847-1.982-26.876c2.518-13.029,7.709-26.876,12.37-26.876
						c4.661,0,4.5,13.847,1.982,26.876C141.276,88.392,136.084,102.24,131.423,102.24z M141.534,49.922
						c-2.398,0-7.613,9.679-10.659,25.442c-3.046,15.763-1.572,25.442,0.825,25.442c2.397,0,7.613-9.679,10.659-25.442
						C145.406,59.601,143.932,49.922,141.534,49.922z"/>
					<path style="fill:#6CD8D0;" d="M133.287,92.598c-14.819,0-25.382-7.731-23.545-17.234c1.837-9.503,15.387-17.234,30.206-17.234
						c14.82,0,25.382,7.731,23.546,17.234C161.657,84.867,148.107,92.598,133.287,92.598z M139.671,59.563
						c-14.029,0-26.812,7.088-28.495,15.8c-1.684,8.712,8.36,15.8,22.388,15.8c14.029,0,26.812-7.088,28.496-15.8
						C163.743,66.651,153.7,59.563,139.671,59.563z"/>
					<path style="fill:#6CD8D0;" d="M135.231,82.54c-13.029,0-26.39-2.515-25.489-7.176c0.901-4.661,15.234-7.176,28.263-7.176
						c13.029,0,26.39,2.515,25.489,7.176C162.593,80.025,148.259,82.54,135.231,82.54z M137.727,69.622
						c-15.763,0-26.088,3.345-26.551,5.742c-0.463,2.397,8.569,5.742,24.332,5.742c15.763,0,26.089-3.345,26.552-5.742
						C162.523,72.966,153.49,69.622,137.727,69.622z"/>
				</g>
				<g>
					<g>
						<path style="fill:#6CD8D0;" d="M219.807,75.935h-51.356c-0.396,0-0.655-0.321-0.579-0.717c0.077-0.396,0.46-0.717,0.856-0.717
							h51.356c0.396,0,0.655,0.321,0.578,0.717C220.586,75.613,220.203,75.935,219.807,75.935z"/>
						<path style="fill:#F73859;" d="M222.229,75.217c-0.244,1.261-1.464,2.284-2.725,2.284c-1.261,0-2.086-1.022-1.842-2.284
							s1.464-2.283,2.725-2.283C221.648,72.934,222.473,73.956,222.229,75.217z"/>
					</g>
					<g>
						<path style="fill:#6CD8D0;" d="M170.78,63.878c-0.183,0-0.353-0.07-0.466-0.21c-0.226-0.28-0.138-0.734,0.196-1.014
							l9.283-7.779c0.16-0.134,0.358-0.21,0.548-0.21h43.577c0.396,0,0.655,0.321,0.578,0.717c-0.076,0.396-0.46,0.717-0.856,0.717
							h-43.28l-9.032,7.569C171.161,63.808,170.964,63.878,170.78,63.878z"/>
						<path style="fill:#F73859;" d="M226.062,55.382c-0.244,1.261-1.464,2.283-2.725,2.283c-1.261,0-2.086-1.022-1.842-2.283
							c0.244-1.261,1.464-2.284,2.725-2.284C225.481,53.098,226.306,54.121,226.062,55.382z"/>
					</g>
					<g>
						<path style="fill:#6CD8D0;" d="M215.973,95.77h-43.577c-0.19,0-0.358-0.076-0.466-0.21l-6.276-7.779
							c-0.226-0.28-0.138-0.734,0.196-1.014c0.334-0.28,0.788-0.28,1.014,0l6.106,7.569h43.28c0.396,0,0.655,0.321,0.578,0.717
							C216.752,95.449,216.369,95.77,215.973,95.77z"/>
						<path style="fill:#F73859;" d="M218.396,95.053c-0.244,1.261-1.464,2.283-2.725,2.283c-1.261,0-2.086-1.022-1.842-2.283
							c0.244-1.261,1.464-2.284,2.725-2.284C217.814,92.77,218.639,93.792,218.396,95.053z"/>
					</g>
				</g>
			</g>
		</g>
	</g>
	<g>
		<g>
			<path style="fill:#081A35;" d="M324.862,445.074h-3.824V340.856c0-2.583-2.168-4.685-4.833-4.685h-27.396
				c-2.665,0-4.833,2.102-4.833,4.685v104.218h-3.824V340.856c0-4.691,3.884-8.509,8.657-8.509h27.396
				c4.773,0,8.657,3.817,8.657,8.509V445.074z"/>
			<path style="fill:none;stroke:#223760;stroke-width:4;stroke-miterlimit:10;" d="M322.95,445.074V340.857
				c0-3.643,3.02-6.597,6.745-6.597h27.397c3.725,0,6.745,2.953,6.745,6.597v104.217"/>
		</g>
		<g>
			<g>
				<rect x="320.626" y="290.866" style="fill:#F73859;" width="6.316" height="33.028"/>
				
					<rect x="343.267" y="290.866" transform="matrix(-1 -1.224647e-16 1.224647e-16 -1 692.8499 614.7602)" style="fill:#F73859;" width="6.316" height="33.028"/>
			</g>
			<g>
				<path style="fill:#081A35;" d="M360.662,295.623h-43.275c-3.845,0-6.962-3.117-6.962-6.962v-29.202
					c0-3.845,3.117-6.962,6.962-6.962h43.275c3.845,0,6.962,3.117,6.962,6.962v29.202
					C367.623,292.506,364.507,295.623,360.662,295.623z"/>
				<path style="fill:#0D3063;" d="M354.55,295.623h-43.275c-3.845,0-6.962-3.117-6.962-6.962v-29.202
					c0-3.845,3.117-6.962,6.962-6.962h43.275c3.845,0,6.962,3.117,6.962,6.962v29.202
					C361.512,292.506,358.395,295.623,354.55,295.623z"/>
			</g>
			<g>
				<path style="fill:#081A35;" d="M364.046,333.207h-42.182v-10.961h42.182c1.976,0,3.578,1.602,3.578,3.578v3.805
					C367.623,331.605,366.022,333.207,364.046,333.207z"/>
				<path style="fill:#0D3063;" d="M321.864,333.207h-42.182c-1.976,0-3.578-1.602-3.578-3.578v-3.805
					c0-1.976,1.602-3.578,3.578-3.578h42.182V333.207z"/>
			</g>
		</g>
	</g>
	<g>
		<g>
			<g>
				<g>
					<g>
						<g>
							<path style="fill:#0D3063;" d="M290.955,429.461c0.475,1.544,0.768,3.042,0.939,4.256c0.222,1.598,0.256,2.682,0.256,2.682
								s-15.535,6.819-34.12,10.1c-1.478-5.125,0.651-7.471,4.041-9.205c4.42-2.27,10.982-3.526,14.476-8.593l12.264-3.876
								c0.778,1.109,1.373,2.38,1.832,3.66C290.757,428.811,290.862,429.139,290.955,429.461z"/>
							<path style="fill:#C4EDDE;" d="M291.894,433.717c0.222,1.598,0.256,2.682,0.256,2.682s-15.535,6.819-34.12,10.1
								c-1.478-5.125,0.651-7.471,4.041-9.205c2.043,0.804,3.764,2.426,4.623,4.437
								C275.346,439.992,283.845,437.342,291.894,433.717z"/>
							<path style="fill:#C4EDDE;" d="M290.955,429.461c-1.337,1.092-2.625,2.25-3.988,3.319c-1.501,1.179-3.111,2.22-4.901,2.876
								c-1.825,0.676-3.608,0.702-5.526,0.539c-2.083-0.185-3.981,0.133-5.858,1.112c-1.799,0.937-3.351,2.25-4.893,3.56
								c-0.464,0.393-1.16-0.262-0.687-0.658c1.709-1.458,3.449-2.945,5.486-3.92c1.79-0.865,3.642-1.24,5.63-1.077
								c0.956,0.073,1.919,0.203,2.884,0.133c0.956-0.067,1.901-0.309,2.798-0.648c3.393-1.277,5.962-3.958,8.745-6.214
								C290.757,428.811,290.862,429.139,290.955,429.461z"/>
						</g>
						<g>
							<path style="fill:#FFFFFF;" d="M270.215,434.203c-0.591,0.17-0.327,1.089,0.265,0.918
								C271.071,434.952,270.807,434.033,270.215,434.203z"/>
							<path style="fill:#FFFFFF;" d="M271.794,433.482c-0.591,0.17-0.327,1.089,0.265,0.918
								C272.65,434.23,272.386,433.311,271.794,433.482z"/>
							<path style="fill:#FFFFFF;" d="M273.477,432.464c-0.591,0.171-0.327,1.089,0.265,0.919
								C274.333,433.212,274.069,432.293,273.477,432.464z"/>
							<path style="fill:#FFFFFF;" d="M274.914,431.251c-0.591,0.17-0.327,1.089,0.265,0.919
								C275.77,431.999,275.507,431.08,274.914,431.251z"/>
						</g>
					</g>
					<path style="fill:#EFAD9C;" d="M283.737,408.682l5.075,16.143c0,0-6.196,5.326-12.264,3.876l-6.162-14.736L283.737,408.682z"/>
				</g>
				<g>
					<path style="fill:#0D3063;" d="M242.719,273.523c0,0-1.081,73.353,0.99,81.597c2.071,8.244,23.804,64.747,23.804,64.747
						l18.854-6.862l-18.457-63.023l4.851-79.879L242.719,273.523z"/>
					<path style="fill:#081A35;" d="M281.188,410.83l-17.951-61.295l5.037-68.527c0.019-0.263-0.178-0.492-0.442-0.512
						c-0.258-0.023-0.493,0.177-0.513,0.441l-1.168,15.9c-5.071-4.259-2.951-15.654-2.927-15.774c0.049-0.259-0.12-0.51-0.379-0.56
						c-0.259-0.052-0.51,0.119-0.56,0.379c-0.101,0.527-2.384,12.802,3.783,17.092l-3.79,51.576
						c-0.004,0.058,0.002,0.115,0.019,0.17l17.975,61.378c0.061,0.208,0.251,0.344,0.458,0.344c0.044,0,0.09-0.007,0.134-0.02
						C281.117,411.349,281.262,411.083,281.188,410.83z"/>
				</g>
			</g>
			<g>
				<g>
					<g>
						<g>
							<path style="fill:#0D3063;" d="M223.531,439.371c0.029,1.616-0.105,3.136-0.277,4.35c-0.229,1.596-0.497,2.648-0.497,2.648
								s-16.816,2.247-35.582,0.249c0-5.334,2.696-6.998,6.434-7.724c4.876-0.956,11.529-0.344,16.29-4.245l12.858-0.325
								c0.44,1.281,0.66,2.667,0.746,4.025C223.521,438.692,223.531,439.036,223.531,439.371z"/>
							<path style="fill:#C4EDDE;" d="M223.254,443.721c-0.229,1.596-0.497,2.648-0.497,2.648s-16.816,2.247-35.582,0.249
								c0-5.334,2.696-6.998,6.434-7.724c1.74,1.338,2.945,3.375,3.212,5.545C205.615,445.164,214.516,444.973,223.254,443.721z"/>
							<path style="fill:#C4EDDE;" d="M223.531,439.371c-1.587,0.679-3.145,1.434-4.751,2.084c-1.769,0.717-3.604,1.271-5.507,1.405
								c-1.941,0.143-3.661-0.325-5.459-1.013c-1.95-0.755-3.862-0.975-5.937-0.555c-1.988,0.402-3.843,1.233-5.688,2.065
								c-0.555,0.249-1.042-0.574-0.478-0.822c2.046-0.927,4.13-1.874,6.357-2.247c1.96-0.335,3.843-0.182,5.707,0.526
								c0.899,0.335,1.788,0.727,2.734,0.927c0.937,0.201,1.912,0.229,2.868,0.153c3.614-0.287,6.826-2.151,10.124-3.547
								C223.521,438.692,223.531,439.036,223.531,439.371z"/>
						</g>
						<g>
							<path style="fill:#FFFFFF;" d="M202.289,438.18c-0.615,0-0.616,0.956,0,0.956C202.904,439.136,202.905,438.18,202.289,438.18
								z"/>
							<path style="fill:#FFFFFF;" d="M204.006,437.924c-0.615,0-0.616,0.956,0,0.956
								C204.621,438.88,204.622,437.924,204.006,437.924z"/>
							<path style="fill:#FFFFFF;" d="M205.906,437.413c-0.615,0-0.616,0.956,0,0.956
								C206.521,438.369,206.522,437.413,205.906,437.413z"/>
							<path style="fill:#FFFFFF;" d="M207.623,436.646c-0.615,0-0.616,0.956,0,0.956
								C208.238,437.602,208.239,436.646,207.623,436.646z"/>
						</g>
					</g>
					<path style="fill:#EFAD9C;" d="M222.367,417.41l0.391,16.918c0,0-7.431,3.395-12.858,0.316l-1.826-15.868L222.367,417.41z"/>
				</g>
				<g>
					<path style="fill:#0D3063;" d="M219.262,270.236c0,0-22.526,70.314-22.581,78.814s7.545,72.509,7.545,72.509l19.971-1.933
						l-3.095-69.645l26.953-75.711L219.262,270.236z"/>
					<path style="fill:#081A35;" d="M240.702,284.012v-4.751c0-0.264-0.214-0.478-0.478-0.478c-0.264,0-0.478,0.214-0.478,0.478
						v4.208c-0.251-0.072-0.573-0.22-0.877-0.527c-0.723-0.73-1.053-2.084-0.957-3.916c0.014-0.264-0.189-0.489-0.452-0.503
						c-0.261-0.015-0.488,0.189-0.502,0.452c-0.114,2.158,0.308,3.726,1.255,4.662c0.462,0.457,0.96,0.667,1.35,0.766
						l-24.407,63.916c-0.023,0.062-0.034,0.128-0.031,0.193l3.288,68.92c0.012,0.257,0.224,0.456,0.477,0.456
						c0.008,0,0.015,0,0.023-0.001c0.264-0.012,0.467-0.236,0.455-0.5l-3.283-68.82l24.585-64.386
						c0.001-0.003,0.001-0.006,0.002-0.009c0,0,0-0.001,0-0.001C240.691,284.121,240.702,284.067,240.702,284.012z"/>
				</g>
			</g>
		</g>
		<g>
			<g>
				<g>
					<path style="fill:#EFAD9C;" d="M235.99,185.301l-23.413,15.947c-2.769,6.839-7.079,14.479-11.496,21.095l-25.206-38.26
						l-8.038,4.969c0,0,21.906,50.123,33.32,50.126C210.801,239.18,235.99,185.301,235.99,185.301z"/>
					<path style="fill:#EFAD9C;" d="M158.531,174.218c-0.21,0.635,0.238,1.223,0.807,1.438c1.829,0.693,3.689,1.298,5.574,1.815
						c-0.557,2.234-0.609,4.62-0.083,6.858c0.525,2.234,1.914,4.441,4.102,5.279c0.131,0.123,0.289,0.214,0.464,0.251
						c2.146,0.446,4.355-0.104,6.183-1.278c1.676-1.076,2.975-2.532,4.251-4.036c0.265-0.312,0.535-0.621,0.823-0.911
						c0.143-0.144,0.29-0.283,0.443-0.416c0.063-0.055,0.127-0.108,0.192-0.16c0.016-0.013,0.047-0.035,0.074-0.053
						c0.18-0.117,0.364-0.218,0.551-0.324c0.02-0.011,0.034-0.02,0.046-0.027c0.01-0.003,0.02-0.006,0.034-0.01
						c0.093-0.029,0.184-0.061,0.279-0.085c0.079-0.02,0.161-0.031,0.24-0.051c0.04-0.007,0.055-0.009,0.049-0.009
						c0.063-0.008,0.127-0.016,0.19-0.024c0.254-0.035,0.493-0.096,0.721-0.225c0.621-0.351,0.94-1.089,0.76-1.779
						c-0.14-0.537-0.555-0.99-1.03-1.258c-0.883-0.499-2.036-0.493-2.998-0.278c-1.327,0.296-2.408,1.067-3.364,1.985
						c-0.036-0.345-0.072-0.69-0.109-1.034c-0.546-5.079-1.23-10.161-2.552-15.103c-0.151-0.565-0.7-0.925-1.272-0.854
						c-0.54,0.068-1.057,0.561-1.022,1.141l0.353,5.923c0.038,0.64,0.077,1.281,0.108,1.922c-1.663-2.46-3.326-4.92-4.989-7.38
						c-0.33-0.488-0.677-0.793-1.242-0.565c-0.54,0.218-0.617,0.933-0.48,1.501c0.583,2.41,1.781,4.742,2.966,6.904
						c-1.814-1.234-4.205-2.667-5.956-3.99c-0.465-0.351-1.176-0.137-1.507,0.277c-0.39,0.489,0.003,1.061,0.36,1.527
						c1.024,1.333,3.077,2.544,4.275,3.713c-1.542-0.451-4.298-0.918-5.801-1.488C159.358,173.18,158.715,173.661,158.531,174.218z"
						/>
				</g>
				<g>
					<path style="fill:#0D3063;" d="M210.911,203.702l-9.536,16.66l-19.181-28.388l-11.289,7.892c0,0,19.51,41.65,30.361,40.883
						c10.851-0.767,24.223-31.237,24.223-31.237L210.911,203.702z"/>
					<path style="fill:#6CD8D0;" d="M233.179,175.406c-10.857,3.707-24.157,28.506-24.157,28.506l16.707,9.805L233.179,175.406z"/>
				</g>
			</g>
			<g>
				<g>
					<path style="fill:#EFAD9C;" d="M262.453,185.65l22.259,17.523c2.291,7.014,6.065,14.933,10.015,21.837l27.783-36.432
						l7.676,5.511c0,0-25.308,48.494-36.695,47.711C283.869,241.136,262.453,185.65,262.453,185.65z"/>
					<path style="fill:#EFAD9C;" d="M339.112,179.027c-1.539,0.465-4.32,0.741-5.889,1.085c1.276-1.083,3.408-2.15,4.521-3.409
						c0.389-0.44,0.82-0.984,0.465-1.499c-0.301-0.436-0.996-0.699-1.484-0.381c-1.838,1.199-4.322,2.464-6.217,3.57
						c1.331-2.075,2.686-4.318,3.434-6.683c0.176-0.557,0.148-1.276-0.376-1.531c-0.548-0.267-0.916,0.014-1.278,0.478
						c-1.828,2.34-3.657,4.679-5.485,7.019c0.075-0.637,0.158-1.274,0.24-1.91l0.76-5.885c0.074-0.576-0.407-1.104-0.941-1.209
						c-0.566-0.111-1.138,0.21-1.328,0.764c-1.66,4.84-2.692,9.862-3.587,14.891c-0.061,0.341-0.121,0.683-0.18,1.024
						c-0.89-0.981-1.916-1.825-3.219-2.212c-0.946-0.281-2.095-0.366-3.01,0.071c-0.492,0.235-0.938,0.658-1.114,1.184
						c-0.227,0.676,0.041,1.434,0.636,1.827c0.218,0.144,0.453,0.221,0.703,0.274c0.063,0.012,0.125,0.025,0.188,0.037
						c-0.006-0.001,0.009,0.003,0.048,0.013c0.077,0.026,0.158,0.042,0.236,0.067c0.093,0.031,0.181,0.068,0.272,0.104
						c0.013,0.005,0.023,0.009,0.033,0.013c0.011,0.008,0.025,0.018,0.044,0.031c0.179,0.119,0.356,0.232,0.527,0.361
						c0.026,0.021,0.055,0.045,0.07,0.058c0.061,0.056,0.122,0.114,0.181,0.173c0.144,0.143,0.281,0.292,0.413,0.446
						c0.268,0.31,0.516,0.636,0.759,0.966c1.17,1.589,2.366,3.131,3.963,4.32c1.743,1.297,3.909,1.998,6.08,1.701
						c0.178-0.024,0.341-0.104,0.48-0.218c2.241-0.685,3.778-2.791,4.456-4.983c0.679-2.196,0.792-4.58,0.39-6.848
						c1.916-0.386,3.813-0.861,5.685-1.427c0.582-0.176,1.069-0.731,0.904-1.379C340.346,179.362,339.738,178.838,339.112,179.027z"
						/>
				</g>
				<g>
					<path style="fill:#0D3063;" d="M286.717,205.915l8.781,17.07l20.431-27.502l10.925,8.388c0,0-21.352,40.736-32.158,39.484
						c-10.806-1.252-22.802-32.289-22.802-32.289L286.717,205.915z"/>
					<path style="fill:#6CD8D0;" d="M271.548,178.462c10.133,5.379,18.528,30.456,18.528,30.456l-17.238,8.55L271.548,178.462z"/>
				</g>
			</g>
			<g>
				<path style="fill:#6CD8D0;" d="M246.406,172.228l-13.227,3.177c0,0-11.027,54.741-17.576,97.106
					c39.911,11.817,57.932,4.521,57.932,4.521c1.585-50.372-1.988-98.57-1.988-98.57l-12.471-5.225L246.406,172.228z"/>
				
					<ellipse transform="matrix(0.0743 -0.9972 0.9972 0.0743 9.5093 450.7538)" style="fill:#C4EDDE;" cx="247.56" cy="220.255" rx="28.885" ry="13.421"/>
			</g>
		</g>
		<g>
			<g>
				<path style="fill:#5B3D31;" d="M239.682,119.47l0.943-3.178c-6.016,2.192-5.813,8.22-5.813,8.22l-0.8-2.576
					c-5.121,5.919-0.492,11.753-0.492,11.753c0.258,1.199,0.685,2.395,1.297,3.565c4.402,8.415,14.503,11.744,18.789,20.183
					c0.935,1.841,2.128,3.923,4.448,4.064c2.136,0.129,3.646-1.671,4.866-3.162c3.461-4.227,6.287-8.967,8.449-13.981
					c2.057-4.772,4.186-10.302,2.381-15.491c-1.255-3.609-4.909-6.396-8.608-5.907C259.356,115.251,247.574,114.867,239.682,119.47z
					"/>
				<path style="fill:#EFAD9C;" d="M264.18,129.756c-4.884-10.941-25.292-8.965-27.52-0.753
					c-4.583,16.893-2.702,24.127,1.742,28.558c5.142,5.128,8.79,4.817,8.005,14.667c0.169,6.651,5.533,10.791,12.67,1.009
					c0.881-13.06,6.146-22.592,6.146-22.592S266.193,134.268,264.18,129.756z"/>
				<path style="fill:#5B3D31;" d="M234.937,134.011c0,0-1.205-3.882,3.902-9.791c3.267-3.779,11.917-4.087,19.118-2.154
					c7.201,1.933,10.125,5.363,9.946,10.625c-0.179,5.262-0.168,11.851-0.168,11.851l-3.009,1.937
					c-4.212-3.322-2.876-14.57-2.876-14.57c-3.852,4.706-10.712,3.004-10.712,3.004l4.287-3.136
					c-4.057,1.932-8.908,2.702-13.384,2.302c1.02-0.797,1.933-1.635,2.853-2.546C241.859,132.802,238.227,134.011,234.937,134.011z"
					/>
				<g>
					<g>
						<path d="M250.6,144.943c-0.057,0.713-0.68,1.244-1.393,1.187c-0.712-0.057-1.244-0.68-1.187-1.393
							c0.057-0.713,0.68-1.244,1.393-1.187C250.125,143.607,250.657,144.23,250.6,144.943z"/>
						<path style="fill:#FFFFFF;" d="M249.338,144.487c-0.021,0.261-0.249,0.455-0.51,0.435c-0.261-0.021-0.456-0.249-0.435-0.51
							c0.021-0.261,0.249-0.456,0.51-0.435C249.164,143.998,249.359,144.226,249.338,144.487z"/>
					</g>
					<g>
						<path d="M240.622,144.148c-0.057,0.712-0.68,1.244-1.393,1.187c-0.712-0.057-1.244-0.68-1.187-1.393
							c0.057-0.712,0.68-1.244,1.393-1.187C240.147,142.812,240.678,143.435,240.622,144.148z"/>
						<path style="fill:#FFFFFF;" d="M239.36,143.692c-0.021,0.261-0.249,0.456-0.51,0.435c-0.261-0.021-0.456-0.249-0.435-0.51
							c0.021-0.261,0.249-0.456,0.51-0.435C239.186,143.203,239.38,143.431,239.36,143.692z"/>
					</g>
					<path style="fill:#5B3D31;" d="M241.888,139.166c-1.531-1.257-3.641-1.36-5.274-0.161c-0.306,0.224-0.395,0.718-0.203,1.057
						c0.196,0.347,0.613,0.435,0.919,0.21c0.67-0.492,1.488-0.673,2.263-0.554c0.392,0.061,0.773,0.197,1.121,0.406
						c0.308,0.185,0.598,0.487,0.975,0.309c0.09-0.042,0.17-0.11,0.235-0.192C242.147,139.96,242.178,139.404,241.888,139.166z"/>
					<path style="fill:#5B3D31;" d="M246.917,139.566c1.948-0.98,4.356-0.723,6.002,0.737c0.308,0.273,0.326,0.775,0.051,1.077
						c-0.281,0.309-0.768,0.325-1.077,0.051c-0.675-0.599-1.572-0.906-2.469-0.918c-0.454-0.006-0.909,0.063-1.34,0.205
						c-0.381,0.125-0.764,0.37-1.158,0.132c-0.094-0.057-0.173-0.137-0.233-0.229C246.487,140.306,246.547,139.752,246.917,139.566z
						"/>
					<path style="fill:#C16B5B;" d="M243.233,151.738c-0.704-0.056-1.424-0.269-2.101-0.697c-0.316-0.199-0.411-0.617-0.211-0.932
						c0.199-0.315,0.616-0.41,0.932-0.211c1.636,1.031,3.612,0.263,4.215-0.44c0.243-0.281,0.67-0.316,0.954-0.072
						c0.283,0.244,0.315,0.67,0.072,0.954C246.385,151.165,244.853,151.867,243.233,151.738z"/>
					<path style="fill:#C16B5B;" d="M241.946,147.774c-0.073-0.006-0.136-0.059-0.152-0.135c-0.232-1.125,0.172-1.469,0.551-1.56
						c0.385-0.09,0.827,0.043,1.313,0.399c0.075,0.055,0.091,0.161,0.036,0.237c-0.056,0.074-0.163,0.09-0.237,0.036
						c-0.401-0.294-0.75-0.41-1.034-0.342c-0.34,0.08-0.441,0.472-0.299,1.163c0.019,0.091-0.04,0.18-0.132,0.2
						C241.978,147.775,241.961,147.775,241.946,147.774z"/>
				</g>
				<g>
					<path style="fill:#EFAD9C;" d="M269.606,151.374c-1.889,1.919-4.655,2.26-6.178,0.761c-1.523-1.499-1.228-4.27,0.661-6.19
						c1.889-1.919,4.655-2.26,6.178-0.761C271.79,146.683,271.495,149.454,269.606,151.374z"/>
					<path style="fill:#C16B5B;" d="M269.061,146.101c-0.702-0.446-1.682-0.506-2.619-0.158c-0.467,0.173-0.814,0.402-1.062,0.698
						c-0.328,0.393-0.451,0.909-0.322,1.346c0.115,0.393,0.4,0.664,0.651,0.904c0.182,0.174,0.353,0.338,0.443,0.524
						c0.138,0.287,0.067,0.667-0.165,0.885c-0.231,0.217-0.615,0.263-0.893,0.107c-0.164-0.092-0.369-0.033-0.461,0.129
						c-0.091,0.162-0.034,0.369,0.129,0.461c0.178,0.1,0.376,0.157,0.577,0.173c0.4,0.032,0.814-0.099,1.111-0.377
						c0.445-0.418,0.576-1.121,0.311-1.671c-0.143-0.297-0.378-0.522-0.585-0.72c-0.208-0.199-0.404-0.387-0.469-0.607
						c-0.065-0.221,0.01-0.503,0.193-0.721c0.073-0.088,0.17-0.164,0.276-0.238c0.335,0.024,0.746,0.16,0.939,0.408
						c0.217,0.28,0.3,0.667,0.215,1.011c-0.045,0.181,0.066,0.364,0.247,0.409c0.018,0.005,0.036,0.008,0.055,0.009
						c0.162,0.013,0.314-0.093,0.354-0.256c0.136-0.548,0.01-1.141-0.337-1.588c-0.13-0.166-0.298-0.285-0.477-0.385
						c0.57-0.106,1.117-0.032,1.526,0.227c0.505,0.32,0.846,1.072,0.528,1.636c-0.091,0.163-0.033,0.369,0.129,0.461
						c0.163,0.091,0.368,0.034,0.461-0.129C270.278,147.817,269.932,146.655,269.061,146.101z"/>
				</g>
			</g>
			<g>
				<g>
					<path style="fill:#081A35;" d="M257.875,148.944l-9.958-0.742c-0.439-0.033-0.847-0.242-1.128-0.579l-1.638-1.964l-2.025,1.718
						c-0.325,0.275-0.746,0.412-1.172,0.38l-8.793-0.659c-1.244-0.093-2.178-1.168-2.086-2.402l0.517-6.932
						c0.092-1.234,1.175-2.158,2.419-2.066l24.714,1.846c1.244,0.093,2.178,1.168,2.086,2.402l-0.517,6.932
						C260.202,148.112,259.119,149.036,257.875,148.944z"/>
					<path style="fill:#0D3063;" d="M255.026,148.75l-9.958-0.742c-0.439-0.033-0.847-0.242-1.128-0.579l-1.638-1.964l-2.025,1.718
						c-0.325,0.275-0.746,0.412-1.172,0.38l-8.793-0.659c-1.244-0.093-2.178-1.168-2.086-2.402l0.517-6.932
						c0.092-1.234,1.175-2.159,2.419-2.066l24.714,1.846c1.244,0.093,2.178,1.168,2.086,2.402l-0.517,6.932
						C257.353,147.918,256.27,148.842,255.026,148.75z"/>
					<path style="fill:#081A35;" d="M253.163,146.556l-8.334-0.621c-0.368-0.027-0.711-0.167-0.951-0.388l-1.397-1.286l-1.668,1.074
						c-0.267,0.172-0.618,0.254-0.974,0.227l-7.359-0.551c-1.041-0.078-1.837-0.782-1.778-1.574l0.332-4.447
						c0.059-0.791,0.951-1.37,1.992-1.292l20.683,1.544c1.041,0.078,1.837,0.782,1.778,1.574l-0.332,4.447
						C255.096,146.055,254.204,146.633,253.163,146.556z"/>
				</g>
				<path style="fill:#081A35;" d="M260.16,144.129l6.008,0.443c0,0,2.87-1.209,4.57,1.205c0.533-1.164,1.054-2.384,1.564-3.649
					l-12.142-1.339V144.129z"/>
			</g>
		</g>
	</g>
	<g>
		<g>
			<g>
				<path style="opacity:0.4;fill:none;stroke:#C4EDDE;stroke-width:2;stroke-miterlimit:10;" d="M381.884,304.257
					c-2.902,0-5.643-1.271-7.518-3.485c-1.876-2.215-2.677-5.128-2.198-7.992l8.345-49.82c0.798-4.764,4.884-8.223,9.715-8.223
					h64.293c2.902,0,5.643,1.271,7.518,3.486c1.876,2.215,2.677,5.128,2.198,7.991l-8.345,49.819
					c-0.798,4.764-4.884,8.223-9.715,8.223H381.884z"/>
				<path style="opacity:0.4;fill:#C4EDDE;" d="M446.177,299.477h-64.293c-3.135,0-5.518-2.816-5.001-5.908l8.345-49.819
					c0.409-2.443,2.524-4.233,5.001-4.233h64.293c3.135,0,5.519,2.816,5.001,5.908l-8.345,49.819
					C450.768,297.688,448.654,299.477,446.177,299.477z"/>
			</g>
			<g>
				<polygon style="fill:#F73859;" points="431.856,269.498 413.79,257.95 409.921,281.045 431.856,269.498 413.79,257.95 
					409.921,281.045 				"/>
				<path style="fill:#C4EDDE;" d="M414.766,290.011c-11.31,0-18.971-9.202-17.077-20.513c1.895-11.311,12.638-20.513,23.949-20.513
					c11.31,0,18.971,9.202,17.077,20.513C436.821,280.808,426.077,290.011,414.766,290.011z M421.158,251.853
					c-9.729,0-18.971,7.915-20.6,17.645c-1.63,9.729,4.96,17.645,14.689,17.645c9.729,0,18.971-7.916,20.6-17.645
					C437.477,259.768,430.887,251.853,421.158,251.853z"/>
			</g>
		</g>
		<g>
			<g>
				<path style="opacity:0.4;fill:none;stroke:#C4EDDE;stroke-width:2;stroke-miterlimit:10;" d="M286.988,222.462
					c-3.513,0-6.831-1.538-9.102-4.218c-2.271-2.681-3.242-6.206-2.664-9.672l17.854-107.138c0.962-5.776,5.911-9.968,11.766-9.968
					h157.519c3.513,0,6.83,1.537,9.102,4.217c2.271,2.681,3.242,6.206,2.665,9.672l-17.854,107.138
					c-0.964,5.776-5.913,9.968-11.767,9.968H286.988z"/>
				<path style="opacity:0.4;fill:#C4EDDE;" d="M444.507,217.682h-157.52c-4.417,0-7.778-3.967-7.052-8.324L297.79,102.22
					c0.574-3.447,3.557-5.974,7.052-5.974h157.52c4.418,0,7.778,3.966,7.052,8.324l-17.854,107.138
					C450.984,215.156,448.002,217.682,444.507,217.682z"/>
			</g>
			<g>
				<g>
					<polygon style="fill:#6CD8D0;" points="361.021,199.62 353.79,199.62 362.616,146.658 369.847,146.658 					"/>
					<polygon style="fill:#F73859;" points="376.219,199.62 368.989,199.62 380.481,130.656 387.712,130.656 					"/>
					<polygon style="fill:#6CD8D0;" points="391.418,199.62 384.187,199.62 390.888,159.413 398.118,159.413 					"/>
					<polygon style="fill:#F73859;" points="406.616,199.62 399.386,199.62 409.344,139.863 416.575,139.863 					"/>
					<polygon style="fill:#6CD8D0;" points="421.815,199.62 414.584,199.62 428.365,116.924 435.596,116.924 					"/>
					<polygon style="fill:#F73859;" points="437.013,199.62 429.783,199.62 442.019,126.195 449.249,126.195 					"/>
					<path style="fill:#6CD8D0;" d="M443.354,207.638H341.64c-0.264,0-0.442-0.214-0.398-0.478c0.044-0.264,0.293-0.478,0.558-0.478
						h101.236l16.28-97.69c0.044-0.264,0.293-0.478,0.558-0.478c0.264,0,0.442,0.214,0.398,0.478l-16.359,98.168
						C443.867,207.424,443.618,207.638,443.354,207.638z"/>
				</g>
				<g>
					<g>
						<polygon style="fill:#6CD8D0;" points="352.495,111.37 310.956,111.37 311.394,108.741 352.934,108.741 						"/>
					</g>
					<g>
						<polygon style="fill:#6CD8D0;" points="358.516,118.019 309.848,118.019 310.286,115.39 358.954,115.39 						"/>
					</g>
					<g>
						<polygon style="fill:#6CD8D0;" points="353.623,124.668 308.74,124.668 309.178,122.039 354.061,122.039 						"/>
					</g>
					<g>
						<polygon style="fill:#6CD8D0;" points="339.929,131.317 307.632,131.317 308.07,128.688 340.367,128.688 						"/>
					</g>
					<g>
						<polygon style="fill:#6CD8D0;" points="347.686,137.966 306.524,137.966 306.962,135.337 348.124,135.337 						"/>
					</g>
				</g>
				<g>
					<polygon style="fill:#6CD8D0;" points="295.592,203.562 291.239,203.562 292.115,198.305 296.468,198.305 					"/>
					<polygon style="fill:#6CD8D0;" points="330.81,203.562 300.257,203.562 301.133,198.305 331.687,198.305 					"/>
				</g>
			</g>
		</g>
	</g>
	<g>
		<path style="fill:#6CD8D0;" d="M273.587,71.489c-2.23,0-4.044-1.814-4.044-4.044c0-2.23,1.814-4.044,4.044-4.044
			c2.23,0,4.044,1.814,4.044,4.044C277.632,69.674,275.818,71.489,273.587,71.489z M273.587,64.356
			c-1.703,0-3.088,1.385-3.088,3.088c0,1.703,1.385,3.088,3.088,3.088c1.703,0,3.088-1.385,3.088-3.088
			C276.676,65.742,275.29,64.356,273.587,64.356z"/>
		<path style="fill:#6CD8D0;" d="M391.152,324.144c-2.23,0-4.044-1.814-4.044-4.044c0-2.23,1.814-4.044,4.044-4.044
			c2.23,0,4.044,1.814,4.044,4.044C395.197,322.33,393.383,324.144,391.152,324.144z M391.152,317.012
			c-1.703,0-3.088,1.385-3.088,3.088c0,1.703,1.385,3.088,3.088,3.088c1.703,0,3.088-1.385,3.088-3.088
			C394.241,318.397,392.855,317.012,391.152,317.012z"/>
		<path style="fill:#6CD8D0;" d="M69.538,374.048c-2.23,0-4.044-1.814-4.044-4.044c0-2.23,1.814-4.044,4.044-4.044
			c2.23,0,4.044,1.814,4.044,4.044C73.582,372.234,71.767,374.048,69.538,374.048z M69.538,366.916
			c-1.703,0-3.088,1.385-3.088,3.088c0,1.703,1.385,3.088,3.088,3.088c1.703,0,3.088-1.385,3.088-3.088
			C72.626,368.301,71.24,366.916,69.538,366.916z"/>
		<path style="fill:#6CD8D0;" d="M352.933,239.914c-2.23,0-4.044-1.814-4.044-4.044s1.814-4.044,4.044-4.044
			c2.23,0,4.044,1.814,4.044,4.044S355.163,239.914,352.933,239.914z M352.933,232.781c-1.703,0-3.088,1.385-3.088,3.088
			s1.385,3.088,3.088,3.088c1.703,0,3.088-1.385,3.088-3.088S354.636,232.781,352.933,232.781z"/>
		<path style="fill:#6CD8D0;" d="M61.674,106.284c-2.23,0-4.044-1.814-4.044-4.044c0-2.23,1.814-4.044,4.044-4.044
			s4.044,1.814,4.044,4.044C65.718,104.47,63.904,106.284,61.674,106.284z M61.674,99.151c-1.703,0-3.088,1.385-3.088,3.088
			c0,1.703,1.385,3.088,3.088,3.088c1.703,0,3.088-1.385,3.088-3.088C64.762,100.537,63.376,99.151,61.674,99.151z"/>
		<path style="fill:#6CD8D0;" d="M358.954,71.489c-2.23,0-4.044-1.814-4.044-4.044c0-2.23,1.814-4.044,4.044-4.044
			c2.23,0,4.044,1.814,4.044,4.044C362.998,69.674,361.184,71.489,358.954,71.489z M358.954,64.356
			c-1.703,0-3.088,1.385-3.088,3.088c0,1.703,1.385,3.088,3.088,3.088c1.703,0,3.088-1.385,3.088-3.088
			C362.042,65.742,360.657,64.356,358.954,64.356z"/>
		<path style="fill:#6CD8D0;" d="M420.889,59.426c-2.23,0-4.044-1.814-4.044-4.044s1.814-4.044,4.044-4.044
			c2.23,0,4.044,1.814,4.044,4.044S423.12,59.426,420.889,59.426z M420.889,52.294c-1.703,0-3.088,1.385-3.088,3.088
			s1.385,3.088,3.088,3.088c1.703,0,3.088-1.385,3.088-3.088S422.592,52.294,420.889,52.294z"/>
		<path style="fill:#6CD8D0;" d="M336.065,59.426c-3.147,0-5.708-2.561-5.708-5.708s2.561-5.708,5.708-5.708
			c3.147,0,5.708,2.56,5.708,5.708S339.212,59.426,336.065,59.426z M336.065,48.966c-2.621,0-4.752,2.132-4.752,4.752
			c0,2.621,2.131,4.752,4.752,4.752c2.62,0,4.752-2.132,4.752-4.752C340.817,51.098,338.686,48.966,336.065,48.966z"/>
		<path style="fill:#6CD8D0;" d="M459.593,325.808c-3.147,0-5.708-2.561-5.708-5.708c0-3.147,2.561-5.708,5.708-5.708
			c3.147,0,5.708,2.561,5.708,5.708C465.301,323.247,462.74,325.808,459.593,325.808z M459.593,315.348
			c-2.621,0-4.752,2.131-4.752,4.752c0,2.621,2.131,4.752,4.752,4.752c2.621,0,4.752-2.131,4.752-4.752
			C464.345,317.479,462.214,315.348,459.593,315.348z"/>
		<path style="fill:#6CD8D0;" d="M41.164,328.759c-3.148,0-5.708-2.561-5.708-5.708c0-3.147,2.56-5.708,5.708-5.708
			c3.148,0,5.708,2.561,5.708,5.708C46.872,326.199,44.312,328.759,41.164,328.759z M41.164,318.3c-2.62,0-4.752,2.131-4.752,4.752
			c0,2.62,2.132,4.752,4.752,4.752c2.62,0,4.752-2.131,4.752-4.752C45.916,320.431,43.784,318.3,41.164,318.3z"/>
	</g>
	<g>
		<g>
			<path style="fill:#F73859;" d="M431.503,379.015c-1.453,4.12-4.933,7.237-8.719,9.417c-3.786,2.18-7.954,3.604-11.893,5.507
				c-3.929,1.902-7.753,4.417-10.057,8.126c-0.774,1.252-1.377,2.706-1.224,4.168c0.153,1.463,1.271,2.906,2.734,3.021
				c1.663,0.124,2.973-1.329,4.015-2.639c1.826-2.323,3.757-4.646,6.262-6.204c2.514-1.558,5.726-2.256,8.461-1.118
				c0.641,0.268,1.224,0.631,1.74,1.071c0.507,0.421,0.946,0.918,1.319,1.463c1.74,2.505,2.132,6.09,1.013,9.015
				c-1.606,4.226-5.497,7.18-9.589,9.101c-4.082,1.921-8.508,3.05-12.6,4.971c-8.69,4.092-15.65,12.447-18.613,21.586h-6.74
				c2.065-8.212-0.344-17.619-5.124-24.607c-2.38-3.489-5.468-6.415-8.193-9.636s-5.162-6.883-5.851-11.042
				c-0.698-4.168,0.717-8.9,4.292-11.137c0.841-0.526,1.788-0.851,2.772-0.985c0.641-0.096,1.291-0.105,1.931-0.038
				c2.581,0.249,5.019,1.721,5.822,4.178c0.516,1.577,0.344,3.289,0.316,4.952c-0.019,1.663,0.143,3.442,1.176,4.742
				c1.042,1.3,3.222,1.788,4.359,0.583c0.593-0.621,0.774-1.52,0.889-2.371c1.52-11.816-6.539-22.686-8.298-34.464
				c-0.65-4.397-0.258-9.302,2.706-12.609c1.3-1.453,3.212-2.371,5.162-2.62c0.65-0.086,1.31-0.096,1.95-0.029
				c1.778,0.191,3.423,1.004,4.426,2.533c2.849,4.321-0.956,10.057-0.306,15.21c0.239,1.864,1.501,3.91,3.375,3.872
				c2.046-0.038,3.145-2.38,3.633-4.369c1.711-7.017,1.682-14.321,2.591-21.481c0.908-7.17,2.945-14.541,7.925-19.77
				c3.47-3.633,8.795-5.956,13.566-4.847c0.631,0.143,1.243,0.354,1.845,0.621c0.029,0.01,0.057,0.029,0.086,0.038
				c6.013,2.782,7.868,10.879,5.918,17.208c-1.95,6.329-6.663,11.348-10.984,16.367c-4.321,5.019-8.556,10.65-9.206,17.246
				c-0.115,1.109-0.029,2.428,0.889,3.078c1.472,1.042,3.356-0.555,4.465-1.979c2.266-2.897,4.713-5.774,7.925-7.543
				c2.878-1.568,6.51-2.103,9.464-0.803c0.354,0.153,0.698,0.335,1.032,0.545c0.21,0.134,0.421,0.277,0.612,0.449
				C431.971,370.287,432.87,375.134,431.503,379.015z"/>
			<path style="fill:#A8002C;" d="M392.938,396.041c0.201-1.033,0.411-2.065,0.621-3.097c11.921-4.025,22.762-11.08,31.242-20.391
				c1.386-1.53,2.715-3.117,3.977-4.761c-0.191-0.172-0.401-0.315-0.612-0.449c-0.335-0.21-0.679-0.392-1.032-0.545
				c-8.461,10.946-20.066,19.349-33.125,23.967c3.585-17.447,7.916-34.894,15.43-51.117c2.639-5.707,5.669-11.233,9.139-16.462
				c-0.602-0.268-1.214-0.478-1.845-0.621c-7.6,11.548-13.03,24.445-17.122,37.657c-3.442,11.118-5.946,22.475-8.231,33.88
				c-8.824-9.646-13.088-22.877-11.329-35.898c0.315-2.294,0.803-4.57,1.472-6.788c-0.64-0.067-1.3-0.057-1.95,0.029
				c-3.384,12.017-1.883,25.076,4.493,35.993c1.912,3.26,4.226,6.262,6.855,8.967c-1.348,6.797-2.629,13.613-4.006,20.401
				c-0.335,1.644-0.679,3.289-1.023,4.923c-6.539-2.706-12.046-7.705-15.353-13.958c-3.031-5.726-4.053-12.361-3.097-18.718
				c-0.641-0.067-1.291-0.057-1.931,0.038c-1.52,11.051,2.763,22.476,11.615,29.617c2.533,2.046,5.344,3.671,8.355,4.904
				c-1.654,7.686-3.499,15.344-5.736,22.887h1.979c1.883-6.357,3.47-12.782,4.914-19.254c13.48-3.384,25.783-11.156,34.693-21.825
				c0.975-1.166,1.912-2.361,2.811-3.595c-0.373-0.545-0.813-1.042-1.319-1.463c-6.558,9.158-15.516,16.52-25.783,21.233
				c-3.202,1.463-6.53,2.629-9.933,3.537c2.065-9.483,3.843-19.043,5.727-28.565C392.919,396.405,392.957,396.223,392.938,396.041z"
				/>
		</g>
		<g>
			<path style="fill:#F2963B;" d="M379,421.84c-0.5,8.84-3.44,17.57-7,24.66h-28.43c-0.62-2.9-2.25-6.39-3.82-8.33
				c-1.57-1.94-3.28-3.71-4.53-6.1c-1.26-2.4-2.02-5.65-1.35-8.52c0.33-1.39,0.98-2.56,1.79-3.4c0.48-0.52,1.04-0.92,1.62-1.18
				c0.48-0.23,0.98-0.36,1.48-0.39c2.09-0.13,4.12,1.25,5.75,3.22c-3.47-5.48-6.89-11.01-10.35-16.5c-1.7-2.68-3.52-5.96-3.09-9.59
				c0.11-0.97,0.39-1.85,0.79-2.62c0.33-0.66,0.75-1.23,1.23-1.69c0.87-0.88,1.92-1.41,2.97-1.48c2.28-0.16,4.47,1.34,6.38,3.18
				c-3.2-5.99-6-11.96-9.2-17.95c-1.57-2.92-3.17-5.94-3.91-9.51c-0.75-3.57-0.47-7.88,1.35-10.46c0.01-0.02,0.02-0.03,0.03-0.05
				c0.44-0.6,0.94-1.07,1.47-1.43c1.22-0.8,2.64-1,3.96-0.67c1.93,0.48,3.68,1.96,5.25,3.69c6.62,7.34,10.2,19.05,13.33,30.5
				c-0.33-2.63,0.42-5.73,1.57-7.81c0.78-1.41,1.9-2.34,3.09-2.72c0.65-0.2,1.32-0.24,1.98-0.09c0.45,0.09,0.88,0.27,1.3,0.55
				c2.11,1.4,3.4,4.6,4.36,7.73c2.63,8.51,3.95,17.92,3.82,27.29c0.36-2.53,2.37-3.62,4.07-3.09c0.65,0.2,1.24,0.64,1.76,1.24
				c0.84,0.97,1.48,2.36,1.86,3.86C379.14,416.6,379.15,419.26,379,421.84z"/>
			<path style="fill:#DD6E0A;" d="M374.91,409.08c-2.89,11.59-7.93,22.58-14.88,32.34c-0.41-5.04-1.02-10.07-1.8-15.07
				c0.15-0.11,0.27-0.29,0.33-0.53c3.83-16.12,4.77-32.81,2.8-49.22c-0.66-0.15-1.33-0.11-1.98,0.09c1.82,14.98,1.15,30.23-1.95,45
				c-3.16-17.5-8.59-34.59-16.13-50.72c-2.76-5.9-5.8-11.66-9.12-17.27c-0.53,0.36-1.03,0.83-1.47,1.43
				c11.12,18.96,19.11,39.68,23.65,61.17c-7.72-7.76-14.83-16.08-21.27-24.9c-0.48,0.46-0.9,1.03-1.23,1.69
				c6.86,9.33,14.45,18.12,22.7,26.26c0.15,0.14,0.31,0.23,0.47,0.26c0.6,3.1,1.13,6.21,1.59,9.34c0.48,3.24,0.87,6.49,1.17,9.75
				c-8.66-4.37-15.82-11.28-20.51-19.73c-0.58,0.26-1.14,0.66-1.62,1.18c5.05,9.05,12.93,16.44,22.33,20.87
				c0.01,0,0.01,0.01,0.02,0.01c0.15,1.82,0.28,3.65,0.38,5.47h1.99c-0.05-1.02-0.12-2.04-0.2-3.05c0.39,0.11,0.83,0.02,1.13-0.39
				c7.12-9.84,12.34-20.99,15.36-32.74C376.15,409.72,375.56,409.28,374.91,409.08z"/>
		</g>
	</g>
	<g>
		<g>
			<g>
				<path style="fill:#F2963B;" d="M179.956,403.377c3.586-8.988,12.284-15.725,21.883-16.95s19.71,3.113,25.437,10.913
					c-6.31,5.314-15.316,8.684-23.553,9.151C195.486,406.959,188.104,404.673,179.956,403.377z"/>
				<path style="fill:#DD6E0A;" d="M145.482,438.376c11.778-17.141,25.93-34.032,45.947-41.572
					c5.108-1.924,10.434-3.133,15.882-3.502c1.114-0.076,1.053,1.658-0.05,1.732c-20.238,1.371-37.094,14.693-49.538,29.785
					c-3.831,4.647-7.37,9.525-10.779,14.487C146.314,440.223,144.848,439.299,145.482,438.376z"/>
			</g>
			<g>
				<path style="fill:#F2963B;" d="M184.15,346.224c4.552,5.388,6.499,13.344,5.108,20.874c-0.997,5.396-3.59,10.439-6.895,14.724
					c-3.305,4.285-7.308,7.863-11.459,11.125c-2.491-8.23-3.039-17.427-1.033-26.131
					C171.878,358.113,177.102,351.006,184.15,346.224z"/>
				<path style="fill:#DD6E0A;" d="M146.14,437.44c10.857-15.557,19.583-32.563,25.849-50.471
					c1.764-5.043,3.328-10.153,4.703-15.315c0.287-1.078,1.943-0.568,1.656,0.509c-4.902,18.409-12.31,36.139-21.975,52.557
					c-2.745,4.663-5.675,9.214-8.771,13.651C146.966,439.282,145.499,438.358,146.14,437.44z"/>
			</g>
			<g>
				<path style="fill:#F2963B;" d="M129.781,362.1c4.691-0.293,9.462-0.44,14.03,0.669c4.568,1.109,8.971,3.624,11.43,7.63
					c1.544,2.514,2.245,5.484,2.341,8.433c0.095,2.949-0.392,5.889-1.088,8.756c-6.229-1.866-12.251-4.658-17.187-8.891
					C134.372,374.465,130.456,368.568,129.781,362.1z"/>
				<path style="fill:#DD6E0A;" d="M144.092,369.098c7.584,4.813,12.227,12.988,14.074,21.635c2.204,10.32,0.29,20.875-3.278,30.663
					c-2.292,6.288-5.227,12.318-8.237,18.288c-0.501,0.994-1.961,0.059-1.462-0.931c5.087-10.091,10.103-20.582,11.708-31.884
					c1.245-8.768,0.188-17.989-4.099-25.838c-2.313-4.233-5.554-7.88-9.637-10.472C142.221,369.963,143.148,368.498,144.092,369.098
					z"/>
			</g>
		</g>
		<g>
			<path style="fill:#F73859;" d="M177.202,446.5H75.047c-3.909-4.577-6.396-11.715-7.201-17.682
				c-0.303-2.257-0.334-4.682,0.815-6.657c1.442-2.466,4.557-3.658,7.399-3.313c2.832,0.334,5.382,1.996,7.347,4.076
				c1.954,2.08,3.396,4.577,4.828,7.054c-2.561-7.671-3.355-15.906-2.508-23.953c0.198-1.923,0.512-3.888,1.473-5.57
				c0.962-1.683,2.686-3.041,4.619-3.052c2.456-0.021,4.41,1.975,5.905,3.909c3.919,5.079,6.97,10.816,8.998,16.899
				c-1.191-12.76-2.017-25.907,3.146-37.633c0.93-2.111,2.09-4.18,3.846-5.654c1.766-1.484,4.243-2.278,6.427-1.568
				c3.595,1.171,4.87,5.497,5.539,9.207c2.163,12.07,3.407,24.308,3.71,36.567c0.763-7.107,3.407-14.046,7.514-19.909
				c1.651-2.351,4.055-4.755,6.908-4.41c1.944,0.24,3.532,1.777,4.347,3.564c0.805,1.777,0.951,3.783,1.003,5.737
				c0.188,7.002-0.742,14.025-2.717,20.745c2.372-5.173,6.114-9.374,10.607-12.854c2.027-1.568,4.64-2.968,7.033-2.069
				c1.442,0.533,2.498,1.829,3.052,3.261c0.554,1.432,0.658,2.989,0.669,4.525c0.031,5.863-1.317,11.736-3.919,16.982
				c1.912-2.895,4.692-5.257,7.848-6.72c2.163-0.993,5.016-1.453,6.688,0.24c1.066,1.097,1.296,2.749,1.327,4.285
				C179.836,437.481,180.024,442.393,177.202,446.5z"/>
			<g>
				<path style="fill:#A8002C;" d="M122.305,446.5h-2.09c-0.199-2.195-0.376-4.389-0.554-6.584
					c-1.599-19.689-2.696-39.399-3.313-59.14c-0.042-1.348,2.048-1.338,2.09,0c0.178,5.602,0.387,11.203,0.637,16.805
					C119.807,413.904,120.894,430.218,122.305,446.5z"/>
				<path style="fill:#A8002C;" d="M108.029,446.5h-2.237c-5.299-13.251-10.221-26.649-14.767-40.172
					c-0.429-1.275,1.588-1.818,2.017-0.554C97.641,419.495,102.637,433.071,108.029,446.5z"/>
				<path style="fill:#A8002C;" d="M91.517,446.5h-2.665c-5.11-6.427-9.97-13.063-14.526-19.888
					c-0.752-1.118,1.056-2.163,1.798-1.056C80.952,432.757,86.083,439.749,91.517,446.5z"/>
				<path style="fill:#A8002C;" d="M143.844,402.315c-3.292,14.589-5.852,29.345-7.65,44.185h-2.101
					c1.829-15.039,4.4-29.972,7.733-44.739C142.13,400.444,144.136,400.998,143.844,402.315z"/>
				<path style="fill:#A8002C;" d="M161.129,417.29c-3.459,9.594-6.479,19.344-9.05,29.21h-2.163
					c2.602-10.064,5.675-19.992,9.197-29.763C159.561,415.472,161.578,416.026,161.129,417.29z"/>
				<path style="fill:#A8002C;" d="M174.997,433.102l-4.18,13.398h-2.195l4.358-13.962
					C173.377,431.263,175.394,431.806,174.997,433.102z"/>
			</g>
		</g>
	</g>
</g>
</svg>
